<?xml version="1.0"?>
<!-- Generated by SVGo -->
<svg width="480" height="480"
     xmlns="http://www.w3.org/2000/svg"
     xmlns:xlink="http://www.w3.org/1999/xlink">
<rect x="0" y="0" width="120" height="120" fill="white" fill-opacity="0.80" />
<text x="10" y="90" stroke="#000" font-family="'Domine'" font-size="100" >11</text>
<rect x="120" y="0" width="120" height="120" fill="white" fill-opacity="0.80" />
<text x="130" y="90" stroke="#000" font-family="'Domine'" font-size="100" >6</text>
<rect x="240" y="0" width="120" height="120" fill="white" fill-opacity="0.27" />
<text x="250" y="90" stroke="#000" font-family="'Domine'" font-size="100" >15</text>
<rect x="360" y="0" width="120" height="120" fill="white" fill-opacity="0.27" />
<text x="370" y="90" stroke="#000" font-family="'Domine'" font-size="100" >2</text>
<rect x="0" y="120" width="120" height="120" fill="white" fill-opacity="0.93" />
<text x="10" y="210" stroke="#000" font-family="'Domine'" font-size="100" >10</text>
<rect x="120" y="120" width="120" height="120" fill="white" fill-opacity="0.40" />
<text x="130" y="210" stroke="#000" font-family="'Domine'" font-size="100" >3</text>
<rect x="240" y="120" width="120" height="120" fill="white" fill-opacity="0.40" />
<text x="250" y="210" stroke="#000" font-family="'Domine'" font-size="100" >14</text>
<rect x="360" y="120" width="120" height="120" fill="white" fill-opacity="0.93" />
<text x="370" y="210" stroke="#000" font-family="'Domine'" font-size="100" >7</text>
<rect x="0" y="240" width="120" height="120" fill="white" fill-opacity="1.07" />
<text x="10" y="330" stroke="#000" font-family="'Domine'" font-size="100" >8</text>
<rect x="120" y="240" width="120" height="120" fill="white" fill-opacity="0.53" />
<text x="130" y="330" stroke="#000" font-family="'Domine'" font-size="100" >13</text>
<rect x="240" y="240" width="120" height="120" fill="white" fill-opacity="0.53" />
<text x="250" y="330" stroke="#000" font-family="'Domine'" font-size="100" >4</text>
<rect x="360" y="240" width="120" height="120" fill="white" fill-opacity="1.07" />
<text x="370" y="330" stroke="#000" font-family="'Domine'" font-size="100" >9</text>
<rect x="0" y="360" width="120" height="120" fill="white" fill-opacity="0.67" />
<text x="10" y="450" stroke="#000" font-family="'Domine'" font-size="100" >5</text>
<rect x="120" y="360" width="120" height="120" fill="white" fill-opacity="0.67" />
<text x="130" y="450" stroke="#000" font-family="'Domine'" font-size="100" >12</text>
<rect x="240" y="360" width="120" height="120" fill="white" fill-opacity="0.13" />
<text x="250" y="450" stroke="#000" font-family="'Domine'" font-size="100" >1</text>
<rect x="360" y="360" width="120" height="120" fill="white" fill-opacity="0.13" />
<text x="370" y="450" stroke="#000" font-family="'Domine'" font-size="100" >16</text>
<line x1="120" y1="0" x2="120" y2="480" stroke-width="3" stroke="#000" fill="none" />
<line x1="240" y1="0" x2="240" y2="480" stroke-width="3" stroke="#000" fill="none" />
<line x1="360" y1="0" x2="360" y2="480" stroke-width="3" stroke="#000" fill="none" />
<line x1="0" y1="120" x2="480" y2="120" stroke-width="3" stroke="#000" fill="none" />
<line x1="0" y1="240" x2="480" y2="240" stroke-width="3" stroke="#000" fill="none" />
<line x1="0" y1="360" x2="480" y2="360" stroke-width="3" stroke="#000" fill="none" />
</svg>
